HIERARCHY
ROOT root
{
	OFFSET	0	13.1	24.9
	CHANNELS 6  Xposition Yposition Zposition Xrotation Yrotation Zrotation
	JOINT spine_1
	{
		OFFSET	0	9.99999	0
		CHANNELS 3  Xrotation Yrotation Zrotation
		JOINT spine_2
		{
			OFFSET	0	112	-10
			CHANNELS 3  Xrotation Yrotation Zrotation
			JOINT spine_3
			{
				OFFSET	0	206.5	19.3
				CHANNELS 3  Xrotation Yrotation Zrotation
				JOINT spine_4
				{
					OFFSET	0	110.4	14.6
					CHANNELS 3  Xrotation Yrotation Zrotation
					JOINT neck_1
					{
						OFFSET	0	71.8	-50.3
						CHANNELS 3  Xrotation Yrotation Zrotation
						JOINT neck_2
						{
							OFFSET	0	86.2	-25.8
							CHANNELS 3  Xrotation Yrotation Zrotation
							JOINT head_ee
							{
								OFFSET	0	179.8	-8.7
								CHANNELS 3  Xrotation Yrotation Zrotation
								End Site
								{
									OFFSET	1	0	0
								}
							}
						}
					}
					JOINT left_clavicle
					{
						OFFSET	-43.2	22.4	-70.8
						CHANNELS 3  Xrotation Yrotation Zrotation
						JOINT left_shoulder
						{
							OFFSET	-93.9	-5.79999	48.7
							CHANNELS 3  Xrotation Yrotation Zrotation
							JOINT left_elbow
							{
								OFFSET	-291.4	-30.8	15.2
								CHANNELS 3  Xrotation Yrotation Zrotation
								JOINT left_lowarm_twist
								{
									OFFSET	-110.7	-3.89999	13.6
									CHANNELS 3  Xrotation Yrotation Zrotation
									JOINT left_hand
									{
										OFFSET	-110.7	-3.89999	13.6
										CHANNELS 3  Xrotation Yrotation Zrotation
										JOINT left_ee
										{
											OFFSET	-80.8	-5.10001	12.1
											CHANNELS 3  Xrotation Yrotation Zrotation
											End Site
											{
												OFFSET	1	0	0
											}
										}
									}
								}
							}
						}
					}
					JOINT right_clavicle
					{
						OFFSET	43.2	22.4	-70.8
						CHANNELS 3  Xrotation Yrotation Zrotation
						JOINT right_shoulder
						{
							OFFSET	93.9	-5.79999	48.7
							CHANNELS 3  Xrotation Yrotation Zrotation
							JOINT right_elbow
							{
								OFFSET	291.4	-30.8	15.2
								CHANNELS 3  Xrotation Yrotation Zrotation
								JOINT right_lowarm_twist
								{
									OFFSET	110.7	-3.89999	13.6
									CHANNELS 3  Xrotation Yrotation Zrotation
									JOINT right_hand
									{
										OFFSET	110.7	-3.89999	13.6
										CHANNELS 3  Xrotation Yrotation Zrotation
										JOINT right_ee
										{
											OFFSET	80.8	-5.10001	12.1
											CHANNELS 3  Xrotation Yrotation Zrotation
											End Site
											{
												OFFSET	1	0	0
											}
										}
									}
								}
							}
						}
					}
				}
			}
		}
	}
	JOINT left_hip
	{
		OFFSET	-82.8	-127.5	0.300001
		CHANNELS 3  Xrotation Yrotation Zrotation
		JOINT left_knee
		{
			OFFSET	-28.2	-396.7	2.2
			CHANNELS 3  Xrotation Yrotation Zrotation
			JOINT left_ankle
			{
				OFFSET	-11.7	-411.3	35.4
				CHANNELS 3  Xrotation Yrotation Zrotation
				JOINT left_toes
				{
					OFFSET	0	-60	-88.6
					CHANNELS 3  Xrotation Yrotation Zrotation
					JOINT left_foot_ee
					{
						OFFSET	-22.5	-16.5	-42.2
						CHANNELS 3  Xrotation Yrotation Zrotation
						End Site
						{
							OFFSET	1	0	0
						}
					}
				}
			}
		}
	}
	JOINT right_hip
	{
		OFFSET	82.8	-127.5	0.300001
		CHANNELS 3  Xrotation Yrotation Zrotation
		JOINT right_knee
		{
			OFFSET	28.2	-396.7	2.2
			CHANNELS 3  Xrotation Yrotation Zrotation
			JOINT right_ankle
			{
				OFFSET	11.7	-411.3	35.4
				CHANNELS 3  Xrotation Yrotation Zrotation
				JOINT right_toes
				{
					OFFSET	0	-60	-88.6
					CHANNELS 3  Xrotation Yrotation Zrotation
					JOINT right_foot_ee
					{
						OFFSET	22.5	-16.5	-42.2
						CHANNELS 3  Xrotation Yrotation Zrotation
						End Site
						{
							OFFSET	1	0	0
						}
					}
				}
			}
		}
	}
}
MOTION
Frames: 6
Frame Time: 0.02
2672.57 728.957 -596.255 153.566 -81.9603 160.761 -0.663108 -0.31341 -2.05751 -0.660771 -0.181879 -2.07327 -0.652529 0.28152 -2.06211 -0.65846 -0.0476121 -2.08069 -4.19667 4.05001 6.23941 -4.09266 2.64277 7.05979 -0.0 0.0 -0.0 6.44276 9.0217 12.4145 -3.76449 -29.3705 58.8597 1.23563 -31.4693 0.348139 -52.8224 -4.40602 4.82231 5.82067 24.5126 50.0815 -0.0 0.0 -0.0 0.646062 9.67497 -0.189882 -3.25645 19.0945 -73.6952 0.427176 11.9483 -0.0447035 15.2682 -0.283087 1.92408 -0.526633 -7.09052 0.47161 0.0 0.0 0.0 -2.2675 2.72598 -4.64438 3.13113 -0.141546 -0.459531 30.6798 14.7234 -4.00569 -22.8041 0.0 0.0 -0.0 0.0 -0.0 7.93039 9.65929 -7.78157 -47.1306 0.981547 -6.96605 -8.95907 26.6694 -1.63528 -26.4075 0.0 0.0 0.0 0.0 0.0 
2688.08 729.551 -604.328 160.406 -81.4803 166.663 -0.38938 -0.38369 -2.11766 -0.386919 -0.248192 -2.13777 -0.376016 0.220758 -2.14078 -0.382392 -0.120027 -2.14878 -3.32626 5.42405 5.67938 -3.23882 5.46946 6.69063 -0.0 0.0 -0.0 7.50947 8.62856 14.3637 -2.26624 -28.1706 57.0306 1.27275 -32.2293 0.367727 -53.1547 -4.44581 4.83764 5.28203 23.4411 45.0109 -0.0 0.0 -0.0 -0.354478 10.4405 1.97505 -4.28975 18.9959 -74.6924 0.341996 9.61566 -0.0287653 15.2393 -0.283038 1.92039 -0.443886 -8.09563 -0.492606 0.0 0.0 0.0 -3.2886 1.23015 -2.94646 3.91481 -0.180895 -0.573308 33.1827 14.3305 -4.26569 -23.9326 0.0 0.0 -0.0 0.0 -0.0 12.371 10.277 -6.23555 -48.8659 1.12484 -7.19151 -15.103 27.6263 -2.81173 -27.0574 0.0 0.0 0.0 0.0 0.0 
2707.52 730.956 -608.517 167.694 -81.5963 173.555 -0.1166 -0.48786 -2.17687 -0.114031 -0.348386 -2.20349 -0.0990003 0.126339 -2.22727 -0.105852 -0.226913 -2.21928 -2.39731 5.72757 5.36889 -2.31598 6.13749 6.39777 -0.0 0.0 -0.0 7.79384 8.30548 14.9021 -1.64455 -27.4427 55.2446 1.51396 -36.8664 0.504629 -52.8635 -4.41093 4.82422 5.18869 22.8893 44.1358 -0.0 0.0 -0.0 -0.682375 10.3083 2.64182 -6.41894 18.7076 -74.9127 0.204277 5.77841 -0.0103097 14.9861 -0.282536 1.88805 -0.481341 -9.06112 -0.659652 0.0 0.0 0.0 -3.94452 2.87259 -1.73901 4.69224 -0.221467 -0.685646 34.9534 14.5372 -4.44778 -24.0582 0.0 0.0 -0.0 0.0 -0.0 14.9528 9.92806 -5.90778 -49.3149 1.16303 -7.24914 -17.8986 27.2487 -3.3221 -27.4289 0.0 0.0 0.0 0.0 0.0 
2725.05 734.693 -612.798 166.249 -81.3226 171.413 -0.0677204 -0.528947 -2.19473 -0.0651243 -0.388254 -2.22392 -0.0483953 0.0896832 -2.25576 -0.0553967 -0.267606 -2.24163 -3.72512 5.97486 5.29776 -3.64586 6.82604 6.38634 -0.0 0.0 -0.0 8.02534 8.09551 15.3414 -0.944742 -27.282 54.1823 1.64334 -39.1446 0.584307 -52.717 -4.39342 4.81741 4.90478 21.1887 41.4897 -0.0 0.0 -0.0 -1.16151 10.3378 3.64503 -8.25139 18.2421 -75.3228 0.22675 6.40907 -0.0126954 14.8221 -0.282134 1.86711 -0.450897 -11.2247 -1.76624 0.0 0.0 0.0 -5.48846 2.47989 -0.582329 4.50992 -0.211816 -0.659351 36.5726 14.6939 -4.60882 -25.1208 0.0 0.0 -0.0 0.0 -0.0 19.1398 10.8045 -5.90934 -49.5052 1.17935 -7.27347 -21.6086 26.1987 -3.96169 -29.242 0.0 0.0 0.0 0.0 0.0 
2745.98 734.622 -617.172 158.945 -81.5846 163.709 -0.0522375 -0.67312 -2.14631 -0.0498339 -0.535215 -2.18477 -0.0277058 -0.0631595 -2.24845 -0.0345177 -0.41738 -2.21029 -5.02851 6.3065 5.92659 -4.93372 7.14119 7.11957 -0.0 0.0 -0.0 8.15904 7.94805 15.5982 0.164868 -26.9716 53.4879 1.70593 -40.1966 0.624262 -52.7425 -4.39646 4.81859 4.38218 18.827 36.8372 -0.0 0.0 -0.0 -1.49692 9.37813 4.2163 -10.2919 17.7697 -74.602 0.239449 6.76476 -0.014152 14.7138 -0.281836 1.85327 -0.422433 -14.222 -3.19315 0.0 0.0 0.0 -8.24605 1.60654 0.600753 3.89328 -0.179793 -0.570189 37.6888 14.9282 -4.71867 -26.1179 0.0 0.0 -0.0 0.0 -0.0 23.6106 10.1301 -6.01552 -48.2591 1.07395 -7.11316 -21.5915 23.8788 -3.85297 -33.2795 0.0 0.0 0.0 0.0 0.0 
2758.77 732.236 -619.836 160.667 -80.3579 165.242 0.0775367 -0.675128 -2.19593 0.0800609 -0.534063 -2.23442 0.102572 -0.0568007 -2.29662 0.0954556 -0.418703 -2.25887 -5.82524 6.30421 5.79019 -5.7367 7.35682 7.0074 -0.0 0.0 -0.0 8.21215 8.04146 15.6914 1.40602 -26.7762 52.8727 1.82987 -42.187 0.705899 -52.7731 -4.40012 4.82002 3.9398 17.4959 33.1514 -0.0 0.0 -0.0 -2.12643 8.88823 5.45769 -10.9069 17.8308 -75.1046 0.281924 7.9505 -0.0195917 14.5412 -0.281307 1.83123 -0.411315 -16.4197 -4.16439 0.0 0.0 0.0 -9.48728 1.88387 1.51832 3.62151 -0.165985 -0.530787 39.1378 15.2438 -4.85813 -26.6299 0.0 0.0 -0.0 0.0 -0.0 26.3004 10.4362 -5.74416 -47.4978 1.0113 -7.01412 -21.5605 22.3222 -3.78321 -36.2897 0.0 0.0 0.0 0.0 0.0 
